<svg xmlns="http://www.w3.org/2000/svg" viewBox="0 0 1200 420" preserveAspectRatio="xMidYMid slice"><defs><linearGradient id="b" x1="0" x2="1"><stop stop-color="#030711"/><stop offset=".55" stop-color="#07132a"/><stop offset="1" stop-color="#2b1258"/></linearGradient><radialGradient id="g" cx="82%" cy="42%"><stop stop-color="#a642ff" stop-opacity=".85"/><stop offset=".4" stop-color="#3a35c9" stop-opacity=".38"/><stop offset="1" stop-color="#030711" stop-opacity="0"/></radialGradient></defs><rect width="1200" height="420" fill="url(#b)"/><rect width="1200" height="420" fill="url(#g)"/><path d="M1030 92c-60 18-115 71-129 142-12 64 25 126 104 160h195V0h-83c-12 31-42 66-87 92z" fill="#11102e" opacity=".9"/><path d="M1017 75c34-28 86-18 112 22 18 27 14 62-8 86 22 8 45 27 61 57l18 154H921c-8-90 19-157 80-197-18-40-12-91 16-122z" fill="#171335"/><path d="M1005 202c58-15 118 4 160 56" fill="none" stroke="#7a44ff" stroke-width="10" opacity=".55"/><circle cx="1090" cy="134" r="54" fill="#1b1743" stroke="#8c4dff" stroke-width="4"/><path d="M1064 130c16-28 54-37 77-9-4 34-20 61-51 69-29-9-42-30-43-55z" fill="#3c2a73"/><circle cx="1114" cy="141" r="4" fill="#7de9ff"/></svg>